<svg version="1.1" xmlns="http://www.w3.org/2000/svg" xmlns:xlink="http://www.w3.org/1999/xlink" viewBox="0 0 172 172"><g fill="none" fill-rule="nonzero" stroke="none" stroke-width="1" stroke-linecap="butt" stroke-linejoin="miter" stroke-miterlimit="10" stroke-dasharray="" stroke-dashoffset="0" font-family="none" font-weight="none" font-size="none" text-anchor="none" style="mix-blend-mode: normal"><path d="M0,172v-172h172v172z" fill="none"></path><g fill="#171bcd"><path d="M44.79167,17.91667c-8.84188,0 -16.125,7.28312 -16.125,16.125v103.91667c0,8.84188 7.28312,16.125 16.125,16.125h82.41667c8.84188,0 16.125,-7.28312 16.125,-16.125v-103.91667c0,-8.84188 -7.28312,-16.125 -16.125,-16.125zM44.79167,28.66667h82.41667c3.03329,0 5.375,2.34171 5.375,5.375v103.91667c0,3.03329 -2.34171,5.375 -5.375,5.375h-82.41667c-3.03329,0 -5.375,-2.34171 -5.375,-5.375v-103.91667c0,-3.03329 2.34171,-5.375 5.375,-5.375zM85.91601,42.92302c-2.96578,0.04633 -5.33356,2.48614 -5.29101,5.45198v6.4318l-6.10986,-3.82129c-1.62917,-1.08523 -3.71948,-1.19905 -5.45686,-0.29713c-1.73737,0.90192 -2.84712,2.67697 -2.89705,4.63386c-0.04993,1.95689 0.96785,3.78623 2.65697,4.77557l7.04069,4.40218l-7.04069,4.40218c-1.68912,0.98934 -2.7069,2.81868 -2.65697,4.77557c0.04993,1.95689 1.15968,3.73195 2.89705,4.63386c1.73737,0.90192 3.82769,0.7881 5.45686,-0.29713l6.10986,-3.82129v6.4318c-0.02741,1.93842 0.99102,3.74144 2.66532,4.71865c1.6743,0.97721 3.74507,0.97721 5.41937,0c1.6743,-0.97721 2.69273,-2.78023 2.66532,-4.71865v-6.4318l6.10986,3.82129c1.62917,1.08523 3.71948,1.19905 5.45686,0.29713c1.73737,-0.90192 2.84712,-2.67697 2.89705,-4.63386c0.04993,-1.95689 -0.96785,-3.78623 -2.65697,-4.77557l-7.04069,-4.40218l7.04069,-4.40218c1.68912,-0.98934 2.7069,-2.81868 2.65697,-4.77557c-0.04993,-1.95689 -1.15968,-3.73195 -2.89705,-4.63386c-1.73737,-0.90192 -3.82769,-0.7881 -5.45686,0.29713l-6.10986,3.82129v-6.4318c0.02085,-1.45347 -0.54782,-2.85342 -1.57635,-3.88062c-1.02852,-1.0272 -2.4292,-1.59408 -3.88264,-1.57136zM59.125,96.75c-1.93842,-0.02741 -3.74144,0.99102 -4.71865,2.66532c-0.97721,1.6743 -0.97721,3.74507 0,5.41937c0.97721,1.6743 2.78023,2.69273 4.71865,2.66532h53.75c1.93842,0.02741 3.74144,-0.99102 4.71865,-2.66532c0.97721,-1.6743 0.97721,-3.74507 0,-5.41937c-0.97721,-1.6743 -2.78023,-2.69273 -4.71865,-2.66532zM59.125,118.25c-1.93842,-0.02741 -3.74144,0.99102 -4.71865,2.66532c-0.97721,1.6743 -0.97721,3.74507 0,5.41937c0.97721,1.6743 2.78023,2.69273 4.71865,2.66532h39.41667c1.93842,0.02741 3.74144,-0.99102 4.71865,-2.66532c0.97721,-1.6743 0.97721,-3.74507 0,-5.41937c-0.97721,-1.6743 -2.78023,-2.69273 -4.71865,-2.66532z"></path></g></g></svg>