<svg version="1.1" xmlns="http://www.w3.org/2000/svg" xmlns:xlink="http://www.w3.org/1999/xlink" viewBox="0 0 172 172">
    <g fill="none" fill-rule="nonzero" stroke="none" stroke-width="0.75" stroke-linecap="butt" stroke-linejoin="miter"
       stroke-miterlimit="10" stroke-dasharray="" stroke-dashoffset="0" font-family="none"
       font-size="none" style="mix-blend-mode: normal">
        <path d="M0,172v-172h172v172z" fill="none"></path>
        <g fill="#171bcd">
            <path d="M87.71468,14.33333c-1.39872,0.02045 -2.73437,0.58534 -3.72331,1.57471l-14.33333,14.33333c-1.40412,1.34815 -1.96972,3.35005 -1.47867,5.23364c0.49105,1.8836 1.96202,3.35456 3.84561,3.84561c1.8836,0.49105 3.88549,-0.07455 5.23364,-1.47867l5.15804,-5.15804v19.27441c-0.02741,1.93842 0.99102,3.74144 2.66532,4.71865c1.6743,0.97721 3.74507,0.97721 5.41937,0c1.6743,-0.97721 2.69273,-2.78023 2.66532,-4.71865v-19.27441l5.15804,5.15804c1.34815,1.40412 3.35005,1.96972 5.23364,1.47867c1.8836,-0.49105 3.35456,-1.96202 3.84561,-3.84561c0.49105,-1.8836 -0.07455,-3.88549 -1.47867,-5.23364l-14.33333,-14.33333c-1.02666,-1.02708 -2.4252,-1.59508 -3.87728,-1.57471zM134.29802,35.83333c-1.39872,0.02045 -2.73437,0.58534 -3.72331,1.57471l-14.33333,14.33333c-1.40412,1.34815 -1.96971,3.35005 -1.47866,5.23364c0.49105,1.88359 1.96202,3.35456 3.84561,3.84561c1.88359,0.49105 3.88549,-0.07455 5.23364,-1.47866l5.15804,-5.15804v19.27441c-0.02741,1.93842 0.99102,3.74144 2.66532,4.71865c1.6743,0.97721 3.74507,0.97721 5.41937,0c1.6743,-0.97721 2.69273,-2.78023 2.66532,-4.71865v-19.27441l5.15804,5.15804c1.34815,1.40412 3.35005,1.96971 5.23364,1.47866c1.88359,-0.49105 3.35456,-1.96202 3.84561,-3.84561c0.49105,-1.88359 -0.07455,-3.88549 -1.47866,-5.23364l-14.33333,-14.33333c-1.02666,-1.02708 -2.4252,-1.59508 -3.87728,-1.57471zM41.13135,57.33333c-1.39872,0.02045 -2.73437,0.58534 -3.72331,1.57471l-14.33333,14.33333c-1.40412,1.34815 -1.96972,3.35005 -1.47867,5.23364c0.49105,1.8836 1.96202,3.35457 3.84561,3.84562c1.8836,0.49105 3.88549,-0.07455 5.23364,-1.47867l5.15804,-5.15804v19.27441c-0.02741,1.93842 0.99102,3.74144 2.66532,4.71865c1.6743,0.97721 3.74507,0.97721 5.41937,0c1.6743,-0.97721 2.69273,-2.78023 2.66532,-4.71865v-19.27441l5.15804,5.15804c1.34815,1.40412 3.35005,1.96971 5.23364,1.47866c1.88359,-0.49105 3.35456,-1.96202 3.84561,-3.84561c0.49105,-1.88359 -0.07455,-3.88549 -1.47866,-5.23364l-14.33333,-14.33333c-1.02666,-1.02708 -2.4252,-1.59508 -3.87728,-1.57471zM87.79167,64.5c-8.84188,0 -16.125,7.28312 -16.125,16.125v60.91667c0,8.84188 7.28312,16.125 16.125,16.125c8.84188,0 16.125,-7.28312 16.125,-16.125v-60.91667c0,-8.84188 -7.28312,-16.125 -16.125,-16.125zM87.79167,75.25c3.03329,0 5.375,2.34171 5.375,5.375v60.91667c0,3.03329 -2.34171,5.375 -5.375,5.375c-3.03329,0 -5.375,-2.34171 -5.375,-5.375v-60.91667c0,-3.03329 2.34171,-5.375 5.375,-5.375zM134.375,86c-8.84188,0 -16.125,7.28312 -16.125,16.125v39.41667c0,8.84188 7.28312,16.125 16.125,16.125c8.84188,0 16.125,-7.28312 16.125,-16.125v-39.41667c0,-8.84188 -7.28312,-16.125 -16.125,-16.125zM134.375,96.75c3.03329,0 5.375,2.34171 5.375,5.375v39.41667c0,3.03329 -2.34171,5.375 -5.375,5.375c-3.03329,0 -5.375,-2.34171 -5.375,-5.375v-39.41667c0,-3.03329 2.34171,-5.375 5.375,-5.375zM41.20833,107.5c-8.84188,0 -16.125,7.28312 -16.125,16.125v17.91667c0,8.84188 7.28312,16.125 16.125,16.125c8.84188,0 16.125,-7.28312 16.125,-16.125v-17.91667c0,-8.84188 -7.28312,-16.125 -16.125,-16.125zM41.20833,118.25c3.03329,0 5.375,2.34171 5.375,5.375v17.91667c0,3.03329 -2.34171,5.375 -5.375,5.375c-3.03329,0 -5.375,-2.34171 -5.375,-5.375v-17.91667c0,-3.03329 2.34171,-5.375 5.375,-5.375z"></path>
        </g>
    </g>
</svg>