<svg version="1.1" xmlns="http://www.w3.org/2000/svg" xmlns:xlink="http://www.w3.org/1999/xlink" viewBox="0 0 172 172">
    <g fill="none" fill-rule="nonzero" stroke="none" stroke-width="1" stroke-linecap="butt" stroke-linejoin="miter"
       stroke-miterlimit="10" stroke-dasharray="" stroke-dashoffset="0" font-family="none" font-weight="none"
       font-size="none" text-anchor="none" style="mix-blend-mode: normal">
        <g id="original-icon" fill="#171bcd">
            <path d="M86,14.33333c-39.51676,0 -71.66667,32.14993 -71.66667,71.66667c0,39.51673 32.1499,71.66667 71.66667,71.66667c39.51676,0 71.66667,-32.14993 71.66667,-71.66667c0,-39.51673 -32.1499,-71.66667 -71.66667,-71.66667zM86,25.08333c33.70704,0 60.91667,27.20965 60.91667,60.91667c0,33.70702 -27.20963,60.91667 -60.91667,60.91667c-33.70704,0 -60.91667,-27.20965 -60.91667,-60.91667c0,-33.70702 27.20963,-60.91667 60.91667,-60.91667zM86,39.41667c-5.93706,0 -10.75,4.81294 -10.75,10.75c0,5.93706 4.81294,10.75 10.75,10.75c5.93706,0 10.75,-4.81294 10.75,-10.75c0,-5.93706 -4.81294,-10.75 -10.75,-10.75zM120.22363,60.86068c-0.56342,0.00118 -1.12315,0.09092 -1.65869,0.26595l-24.36247,6.9567h-8.20247h-8.20247l-24.36247,-6.9567c-0.51502,-0.15607 -1.05056,-0.23393 -1.5887,-0.23096c-2.68295,0.02549 -4.93628,2.02543 -5.28014,4.68637c-0.34386,2.66095 1.32706,5.16799 3.9154,5.87466l24.76839,7.08268v15.44613l-10.40706,27.74984c-0.70158,1.80385 -0.37927,3.84561 0.84386,5.34562c1.22313,1.50002 3.15823,2.22669 5.06638,1.90253c1.90815,-0.32415 3.49472,-1.64908 4.15389,-3.46886l11.09294,-29.5835l11.09294,29.5835c0.65917,1.81978 2.24574,3.14471 4.15389,3.46886c1.90815,0.32415 3.84324,-0.40252 5.06638,-1.90253c1.22313,-1.50002 1.54544,-3.54177 0.84386,-5.34562l-10.40706,-27.74984v-15.44613l24.76839,-7.08268c2.64316,-0.64892 4.38428,-3.17094 4.05416,-5.87251c-0.33011,-2.70156 -2.62727,-4.73014 -5.34892,-4.72352z"></path>
        </g>
    </g>
</svg>
