<svg version="1.1" xmlns="http://www.w3.org/2000/svg" xmlns:xlink="http://www.w3.org/1999/xlink" viewBox="0 0 172 172"><g fill="none" fill-rule="nonzero" stroke="none" stroke-width="1" stroke-linecap="butt" stroke-linejoin="miter" stroke-miterlimit="10" stroke-dasharray="" stroke-dashoffset="0" font-family="none" font-weight="none" font-size="none" text-anchor="none" style="mix-blend-mode: normal"><path d="M0,172v-172h172v172z" fill="none"></path><g fill="#171bcd"><path d="M86,14.33333c-39.51676,0 -71.66667,32.14993 -71.66667,71.66667c0,39.51673 32.1499,71.66667 71.66667,71.66667c39.51676,0 71.66667,-32.14993 71.66667,-71.66667c0,-39.51673 -32.1499,-71.66667 -71.66667,-71.66667zM86,25.08333c33.70704,0 60.91667,27.20965 60.91667,60.91667c0,33.70702 -27.20963,60.91667 -60.91667,60.91667c-33.70704,0 -60.91667,-27.20965 -60.91667,-60.91667c0,-33.70702 27.20963,-60.91667 60.91667,-60.91667zM84.12435,42.92302c-2.96578,0.04633 -5.33356,2.48614 -5.29101,5.45198v43c0.0003,2.96841 2.40659,5.3747 5.375,5.375h28.66667c1.93842,0.02741 3.74144,-0.99102 4.71865,-2.66532c0.97721,-1.6743 0.97721,-3.74507 0,-5.41937c-0.97721,-1.6743 -2.78023,-2.69273 -4.71865,-2.66532h-23.29167v-37.625c0.02085,-1.45347 -0.54782,-2.85342 -1.57635,-3.88062c-1.02852,-1.0272 -2.4292,-1.59408 -3.88264,-1.57136z"></path></g></g></svg>