<svg width="102" height="72" viewBox="0 0 102 72" fill="none" xmlns="http://www.w3.org/2000/svg">
<path d="M5.303 32.672L9.16 22.384L87.5 0.5L101.5 44.5L7.038 72L0 45.726L5.303 32.672Z" fill="#EEA1BE"/>
<path d="M17.1247 52.823L14.8659 44.3931L19.9205 43.0387L20.1632 43.9442L16.1293 45.0251L16.8926 47.8735L20.5477 46.8941L20.7904 47.7996L17.1352 48.779L18.1455 52.5494L17.1247 52.823ZM26.6916 47.489L25.6901 43.7515L26.6615 43.4912L28.3556 49.8136L27.3842 50.0739L27.0975 49.0037L27.0316 49.0214C26.9694 49.3821 26.8121 49.7169 26.5596 50.0258C26.3063 50.3319 25.9409 50.5489 25.4634 50.6768C25.0683 50.7827 24.6939 50.7904 24.3402 50.6999C23.9858 50.6066 23.6738 50.4079 23.404 50.1037C23.1335 49.7967 22.9262 49.3743 22.7821 48.8365L21.7057 44.8191L22.6771 44.5588L23.7359 48.5104C23.8594 48.9714 24.0869 49.3045 24.4184 49.5098C24.7526 49.7144 25.1214 49.7626 25.5248 49.6545C25.7663 49.5898 25.9953 49.4623 26.212 49.2719C26.4313 49.0807 26.5919 48.8348 26.6937 48.534C26.7982 48.2325 26.7975 47.8841 26.6916 47.489ZM28.8475 40.6467L31.1063 49.0766L30.1348 49.3369L27.8761 40.907L28.8475 40.6467ZM31.5981 39.9097L33.8569 48.3396L32.8855 48.5999L30.6267 40.17L31.5981 39.9097ZM38.7998 41.7564L37.9933 42.2372C37.8995 42.1065 37.7807 41.9868 37.6369 41.8783C37.4951 41.7663 37.3215 41.6893 37.1162 41.6472C36.9108 41.6052 36.6668 41.6221 36.3841 41.6978C35.9972 41.8015 35.6987 41.9771 35.4885 42.2245C35.2804 42.4685 35.2127 42.7264 35.2855 42.998C35.3502 43.2395 35.4891 43.4067 35.7022 43.4996C35.9154 43.5925 36.221 43.6356 36.6192 43.6289L37.6195 43.6079C38.2215 43.5937 38.699 43.6907 39.0519 43.8991C39.404 44.1047 39.6393 44.4285 39.7577 44.8703C39.8547 45.2325 39.8372 45.5842 39.7051 45.9255C39.5758 46.266 39.348 46.5683 39.0216 46.8322C38.6953 47.0961 38.2865 47.2938 37.7953 47.4254C37.1505 47.5982 36.5792 47.6013 36.0816 47.4346C35.584 47.268 35.2069 46.9308 34.9503 46.4231L35.8106 45.9455C35.9896 46.2623 36.224 46.473 36.5138 46.5777C36.8063 46.6816 37.1516 46.6803 37.5494 46.5737C38.0022 46.4524 38.336 46.26 38.5507 45.9966C38.7674 45.7297 38.8394 45.4604 38.7666 45.1888C38.7077 44.9692 38.5816 44.806 38.3883 44.699C38.1942 44.5892 37.928 44.5399 37.5899 44.5511L36.4699 44.5865C35.8542 44.6045 35.3718 44.5058 35.023 44.2904C34.6761 44.0716 34.4442 43.744 34.3273 43.3077C34.2317 42.951 34.2473 42.6086 34.3741 42.2805C34.5037 41.9517 34.7217 41.6624 35.0283 41.4126C35.3376 41.162 35.7146 40.9772 36.1591 40.8581C36.7848 40.6905 37.3127 40.696 37.743 40.8749C38.176 41.053 38.5283 41.3468 38.7998 41.7564ZM42.7475 39.181L42.9681 40.0042L39.6916 40.8821L39.471 40.0589L42.7475 39.181ZM40.0201 38.2883L40.9915 38.028L42.6062 44.0541C42.6797 44.3285 42.7747 44.5236 42.891 44.6395C43.0094 44.7519 43.1379 44.8145 43.2766 44.8273C43.4174 44.8367 43.5591 44.8222 43.7018 44.784C43.8088 44.7553 43.8951 44.7263 43.9608 44.697C44.0257 44.6649 44.0777 44.6392 44.1166 44.6199L44.548 45.4396C44.4888 45.4819 44.4035 45.5313 44.2921 45.5876C44.1814 45.6466 44.0356 45.7004 43.8545 45.749C43.58 45.8225 43.2953 45.8356 43.0003 45.7881C42.708 45.74 42.443 45.6184 42.2054 45.4232C41.9706 45.2273 41.8039 44.9455 41.7054 44.5778L40.0201 38.2883ZM47.803 44.7615C47.4024 44.8689 47.0186 44.8909 46.6516 44.8274C46.2839 44.7613 45.9654 44.6098 45.6961 44.3732C45.426 44.1338 45.2359 43.8083 45.1256 43.3966C45.0285 43.0344 45.0212 42.7217 45.1036 42.4584C45.1853 42.1924 45.3282 41.963 45.5324 41.77C45.7365 41.5771 45.9742 41.4104 46.2455 41.2701C46.5187 41.1263 46.797 40.9959 47.0803 40.8788C47.4512 40.7265 47.7528 40.606 47.9849 40.5173C48.219 40.4251 48.3825 40.3328 48.4754 40.2403C48.571 40.147 48.5978 40.0222 48.5559 39.8658L48.5471 39.8328C48.4382 39.4267 48.2425 39.1409 47.96 38.9755C47.6802 38.8093 47.3166 38.7861 46.8693 38.9059C46.4056 39.0302 46.0692 39.2292 45.8602 39.5028C45.6511 39.7765 45.524 40.0429 45.4787 40.3021L44.4685 40.2198C44.5302 39.7915 44.6696 39.4336 44.8866 39.146C45.1057 38.855 45.3671 38.6232 45.6709 38.4506C45.9766 38.2746 46.2887 38.1439 46.607 38.0586C46.81 38.0042 47.0499 37.9664 47.3266 37.9452C47.6053 37.9205 47.8879 37.9492 48.1746 38.0312C48.464 38.1125 48.7311 38.2806 48.9759 38.5356C49.2207 38.7906 49.4104 39.1692 49.5449 39.6713L50.6611 43.8369L49.6897 44.0972L49.4603 43.241L49.4109 43.2543C49.3818 43.4091 49.3114 43.5853 49.1996 43.7829C49.0879 43.9805 48.9191 44.1684 48.6933 44.3465C48.4675 44.5247 48.1707 44.663 47.803 44.7615ZM47.7174 43.8492C48.1016 43.7463 48.4052 43.584 48.6281 43.3625C48.8539 43.1403 49.002 42.8918 49.0725 42.617C49.1457 42.3415 49.1471 42.072 49.0765 41.8086L48.8382 40.9195C48.8103 40.9799 48.7319 41.0495 48.603 41.1281C48.4761 41.2033 48.3261 41.2803 48.1531 41.359C47.9821 41.4342 47.8144 41.5056 47.6502 41.5731C47.4879 41.6372 47.3565 41.6901 47.2559 41.7317C47.0123 41.8323 46.7906 41.949 46.5909 42.082C46.3933 42.2114 46.2467 42.3668 46.1512 42.5483C46.0577 42.7263 46.0441 42.9388 46.1102 43.1857C46.2007 43.5233 46.3939 43.745 46.6899 43.851C46.988 43.9535 47.3305 43.9529 47.7174 43.8492ZM55.0379 42.8053C54.4452 42.9641 53.8973 42.9609 53.3942 42.7957C52.8911 42.6306 52.4585 42.3332 52.0964 41.9038C51.7343 41.4744 51.4687 40.9441 51.2996 40.3129C51.1275 39.6708 51.0937 39.0725 51.198 38.5181C51.3044 37.9602 51.5332 37.4857 51.8842 37.0946C52.2373 36.7 52.6992 36.4262 53.27 36.2733C53.7146 36.1541 54.1373 36.1291 54.5381 36.1982C54.939 36.2672 55.293 36.4194 55.6001 36.6548C55.9073 36.8901 56.1413 37.198 56.302 37.5784L55.3306 37.8387C55.1793 37.5704 54.9463 37.3594 54.6315 37.2055C54.3188 37.0481 53.9484 37.0268 53.5203 37.1415C53.1416 37.2429 52.836 37.4307 52.6036 37.7047C52.3732 37.9753 52.2262 38.3103 52.1626 38.7097C52.101 39.1056 52.1342 39.5422 52.2621 40.0197C52.393 40.5082 52.5838 40.9129 52.8346 41.234C53.088 41.5543 53.3829 41.7767 53.7192 41.9013C54.0583 42.0252 54.4199 42.0356 54.8041 41.9327C55.0566 41.865 55.2739 41.7597 55.4562 41.6168C55.6385 41.4738 55.7789 41.3009 55.8775 41.098C55.9761 40.8951 56.0247 40.6704 56.0233 40.4237L56.9947 40.1634C57.0398 40.5513 56.994 40.9238 56.8574 41.281C56.7228 41.6348 56.502 41.9468 56.1951 42.2173C55.8901 42.4843 55.5044 42.6803 55.0379 42.8053ZM59.1968 39.0792L58.8583 37.8817L59.0558 37.8288L61.0675 34.2722L62.2694 33.9501L60.1208 37.7199L60.0384 37.742L59.1968 39.0792ZM58.9089 41.6269L56.6501 33.197L57.6215 32.9367L59.8803 41.3666L58.9089 41.6269ZM62.9262 40.5505L59.6183 38.0839L60.129 37.2236L64.1611 40.2196L62.9262 40.5505Z" fill="#18033C"/>
<path d="M20 29.54L0 46L8.615 23L20 29.54Z" fill="#C26A8B"/>
</svg>
