<svg version="1.1" xmlns="http://www.w3.org/2000/svg" xmlns:xlink="http://www.w3.org/1999/xlink" viewBox="0 0 172 172">
    <g fill="none" fill-rule="nonzero" stroke="none" stroke-width="1" stroke-linecap="butt" stroke-linejoin="miter"
       stroke-miterlimit="10" stroke-dasharray="" stroke-dashoffset="0" font-family="none" font-weight="none"
       font-size="none" text-anchor="none" style="mix-blend-mode: normal">
        <path d="M0,172v-172h172v172z" fill="none"></path>
        <g fill="#0063FF">
            <path d="M51.95833,28.66667c-6.86192,0 -12.54167,5.67975 -12.54167,12.54167v7.10368l-17.1958,10.2321c-4.88354,2.90329 -7.88753,8.17975 -7.88753,13.85742v54.8068c0,12.79944 10.49222,23.29167 23.29167,23.29167h96.75c12.79944,0 23.29167,-10.49222 23.29167,-23.29167v-54.79981c0,-5.68105 -3.00259,-10.95427 -7.88053,-13.85742c-0.00233,-0.00233 -0.00466,-0.00467 -0.007,-0.007l-17.1958,-10.2251v-7.11068c0,-6.86192 -5.67974,-12.54167 -12.54167,-12.54167zM51.95833,39.41667h68.08333c1.05724,0 1.79167,0.73442 1.79167,1.79167v41.08936l-35.83333,17.43376l-35.83333,-17.43376v-30.0944c0.09479,-0.57703 0.09479,-1.16565 0,-1.74268v-9.25228c0,-1.05724 0.73442,-1.79167 1.79167,-1.79167zM39.41667,60.82568v16.24398l-13.87142,-6.74674c0.43893,-1.03685 1.16357,-1.94244 2.1696,-2.54053zM132.58333,60.83268l11.70182,6.95671c1.00041,0.59706 1.72211,1.50009 2.1626,2.53353l-13.86442,6.74674zM25.08333,82.05274l58.5651,28.4917c1.48454,0.72219 3.21859,0.72219 4.70313,0l58.5651,-28.4917v45.1556c0,6.98772 -5.55394,12.54167 -12.54167,12.54167h-96.75c-6.98772,0 -12.54167,-5.55394 -12.54167,-12.54167z"></path>
        </g>
    </g>
</svg>