<svg version="1.1" xmlns="http://www.w3.org/2000/svg" xmlns:xlink="http://www.w3.org/1999/xlink" viewBox="0 0 172 172">
    <g fill="none" fill-rule="nonzero" stroke="none" stroke-width="1" stroke-linecap="butt" stroke-linejoin="miter"
       stroke-miterlimit="10" stroke-dasharray="" stroke-dashoffset="0" font-family="none" font-weight="none"
       font-size="none" text-anchor="none" style="mix-blend-mode: normal">
        <g fill="#171bcd">
            <path d="M84.04736,17.92367c-4.00936,-0.14239 -7.70519,2.05328 -9.58822,5.60596c-6.25513,9.36639 -12.3595,23.81123 -15.36214,31.03222c-5.8524,0.94193 -10.71128,2.84485 -15.34115,3.64632c-5.85831,1.01079 -13.45295,0.57389 -18.94548,0.57389c-3.40239,0 -6.56913,1.6755 -8.51742,4.41618c-0.00234,0.00466 -0.00467,0.00933 -0.007,0.014c-1.94424,2.7495 -2.46836,6.23155 -1.45573,9.42025c0.00233,0.00467 0.00466,0.00934 0.007,0.014c2.77574,8.6847 10.57409,15.47214 15.21517,18.90348c0.04609,0.03575 0.09275,0.07075 0.13997,0.10498c8.37894,5.78546 12.4685,8.0665 15.92204,10.05013c-1.92744,8.968 -7.10877,28.74203 -9.54623,38.77979l0.13998,-0.48291c-1.4015,4.07512 -0.23134,8.63261 3.03743,11.49186c1.92178,1.68116 4.38309,2.59652 6.86572,2.59652c1.71251,0 3.42529,-0.42933 4.96908,-1.26676c0.007,-0.00232 0.014,-0.00465 0.021,-0.007c11.85624,-6.4927 28.12096,-15.15129 33.26481,-17.65771c13.44031,5.48037 32.63493,16.69189 32.63493,16.69189c0.02555,0.01421 0.05121,0.0282 0.07698,0.04199c3.41669,1.96184 7.72577,1.8003 10.98795,-0.39893c3.27049,-2.2098 5.00671,-6.04626 4.59814,-9.93115c-1.24435,-11.86892 -2.98988,-25.52783 -7.89453,-38.61181c8.20251,-9.76312 15.73182,-16.61841 27.73584,-24.75439c3.41517,-2.31091 5.15245,-6.39392 4.53516,-10.43506c0,-0.00233 0,-0.00467 0,-0.007c-0.62101,-4.02588 -3.50898,-7.42675 -7.48161,-8.5734c-0.00233,0 -0.00467,0 -0.007,0c-14.75857,-4.24573 -27.47753,-6.42535 -42.55908,-6.48779c-5.17248,-9.21246 -10.03148,-18.70404 -14.22835,-28.42171v-0.007c-1.58412,-3.67642 -5.17176,-6.19236 -9.21729,-6.34082zM83.65544,29.0376c4.66968,10.75925 9.9378,21.34024 15.75407,31.48014c0.97743,1.70547 2.80781,2.74144 4.77311,2.7015c15.55658,-0.32959 27.31899,1.83983 42.60807,6.22184c-13.32726,9.05367 -22.24484,17.05301 -31.66911,28.65267c-1.26062,1.55319 -1.55452,3.6779 -0.76286,5.51497c5.16744,11.99513 6.70695,25.82207 8.0555,38.66781c-0.96691,-0.57945 -20.84091,-12.46759 -35.77034,-18.14062c-1.34331,-0.51138 -2.83547,-0.46349 -4.14323,0.13298c-5.38972,2.45979 -22.87227,11.90216 -35.5114,18.8195c0.00716,-0.02328 0.01416,-0.04661 0.021,-0.06999c2.56346,-10.55668 8.8867,-33.90555 10.52604,-42.81103c0.41596,-2.26191 -0.65309,-4.53786 -2.65951,-5.66195c-2.98934,-1.67403 -8.63228,-4.88749 -18.46257,-11.66683c-2.74158,-2.03881 -10.10433,-10.14102 -11.23291,-13.36051c4.79238,0.02078 12.77436,0.60207 20.4012,-0.71387c0.00233,0 0.00467,0 0.007,0c7.56509,-1.30958 12.63509,-3.93894 17.58773,-4.17822c2.07417,-0.10028 3.90507,-1.38627 4.70312,-3.30339c2.55029,-6.13716 10.22053,-24.11046 15.73307,-32.222c0.01415,-0.0209 0.02814,-0.04189 0.04199,-0.06299z"></path>
        </g>
    </g>
</svg>