<svg version="1.1" xmlns="http://www.w3.org/2000/svg" xmlns:xlink="http://www.w3.org/1999/xlink" viewBox="0 0 172 172">
    <g fill="none" fill-rule="nonzero" stroke="none" stroke-width="1" stroke-linecap="butt" stroke-linejoin="miter"
       stroke-miterlimit="10" stroke-dasharray="" stroke-dashoffset="0" font-family="none" font-weight="none"
       font-size="none" text-anchor="none" style="mix-blend-mode: normal">
        <path d="M0,172v-172h172v172z" fill="none"></path>
        <g fill="#0063FF">
            <path d="M137.21647,25.06934c-0.55183,0 -1.11369,0.03673 -1.67269,0.11198c-12.68858,1.6985 -22.23929,8.3219 -29.36654,15.76806c-6.17408,-0.97108 -12.85649,-1.53271 -20.17724,-1.53271c-8.31333,0 -15.7932,0.73022 -22.63379,1.97363c-7.14875,-7.59667 -17.80569,-14.47123 -30.75228,-16.20198c-0.54825,-0.07167 -1.08961,-0.10498 -1.6307,-0.10498c-5.36783,0 -10.28433,3.51794 -11.63883,8.84635c-3.04583,11.997 -0.74662,23.24559 2.44255,31.78109c-7.47125,9.89717 -11.03695,22.07831 -11.03695,35.4764c0,24.19108 17.91667,52.89616 60.91667,52.89616h5.375h17.91667h5.375c39.41667,0 60.91667,-26.44758 60.91667,-52.89616c0,-14.54833 -4.17716,-27.68685 -13.03158,-37.98893c2.60508,-8.08758 3.33989,-18.54095 0.58789,-29.38053c-1.35092,-5.31408 -6.23634,-8.74837 -11.58984,-8.74837zM137.21647,35.81934c0.49808,0 1.06487,0.24596 1.16878,0.65088c2.00308,7.88333 1.85857,16.42264 -0.39893,23.43164l-0.61588,1.91064c-0.76325,2.37575 -0.24109,4.98072 1.38574,6.87272l1.30876,1.51872c6.92658,8.05175 10.43506,18.47382 10.43506,30.98323c0,7.56579 -1.83811,14.15053 -5.29802,19.76432c1.09061,-3.73168 1.71468,-7.62977 1.71468,-11.65983c0,-10.03333 -3.062,-18.61556 -8.56641,-24.67041c-5.50441,-6.05485 -13.38151,-9.37126 -21.89193,-9.37126c-8.95833,0 -18.99863,3.58333 -30.45833,3.58333c-11.51786,0 -21.5,-3.58333 -30.45833,-3.58333c-8.51042,0 -16.38752,3.31641 -21.89193,9.37126c-5.50441,6.05485 -8.56641,14.63708 -8.56641,24.67041c0,4.60834 0.62818,9.14183 1.88265,13.4515c-5.45658,-8.29884 -5.46598,-16.98 -5.46598,-21.55599c0,-11.45233 2.98693,-21.20527 8.87435,-29.0026l1.18278,-1.57471c1.47633,-1.9565 1.85382,-4.5304 0.99382,-6.82373l-0.68587,-1.84066c-3.37192,-9.03 -4.07761,-17.56578 -2.09961,-25.37028c0.11825,-0.46583 0.71252,-0.74186 1.21777,-0.74186c0.06808,0 0.13488,0.00325 0.20296,0.014c12.14392,1.62325 20.46772,8.78477 24.34847,12.9056l1.33675,1.42073c1.66267,1.77017 4.11171,2.57518 6.50179,2.1416l1.91764,-0.34993c6.65783,-1.21117 13.4314,-1.79866 20.70915,-1.79866c6.46433,0 12.52022,0.45732 18.51156,1.39974l1.84766,0.29394c2.31842,0.3655 4.66858,-0.43269 6.29183,-2.1276l1.29476,-1.35075c6.9875,-7.29925 14.51888,-11.40217 23.02572,-12.54167c0.08242,-0.01075 0.16612,-0.021 0.24496,-0.021zM55.54167,86c5.375,0 16.89286,3.58333 30.45833,3.58333c13.51613,0 25.08333,-3.58333 30.45833,-3.58333c5.82292,0 10.48748,2.05859 13.94141,5.85791c3.45392,3.79932 5.76693,9.55042 5.76693,17.43376c0,14.35273 -8.91713,26.87506 -25.22331,31.79509c-7.37242,1.45939 -15.66407,2.24658 -24.94336,2.24658c-9.97716,0 -18.40199,-0.7639 -25.53125,-2.08561c-6.4246,-1.78735 -11.41784,-4.60258 -15.13118,-8.09749c-6.43677,-6.05814 -9.50423,-14.303 -9.50423,-23.85856c0,-7.88333 2.313,-13.63444 5.76693,-17.43376c3.45392,-3.79932 8.11849,-5.85791 13.94141,-5.85791zM59.125,100.33333c-4.94755,0 -8.95833,4.81294 -8.95833,10.75c0,5.93706 4.01078,10.75 8.95833,10.75c4.94755,0 8.95833,-4.81294 8.95833,-10.75c0,-5.93706 -4.01078,-10.75 -8.95833,-10.75zM112.875,100.33333c-4.94755,0 -8.95833,4.81294 -8.95833,10.75c0,5.93706 4.01078,10.75 8.95833,10.75c4.94755,0 8.95833,-4.81294 8.95833,-10.75c0,-5.93706 -4.01078,-10.75 -8.95833,-10.75z"></path>
        </g>
    </g>
</svg>