<svg version="1.1" xmlns="http://www.w3.org/2000/svg" xmlns:xlink="http://www.w3.org/1999/xlink" viewBox="0 0 172 172">
    <g fill="none" fill-rule="nonzero" stroke="none" stroke-width="1" stroke-linecap="butt" stroke-linejoin="miter"
       stroke-miterlimit="10" stroke-dasharray="" stroke-dashoffset="0" font-family="none" font-weight="none"
       font-size="none" text-anchor="none" style="mix-blend-mode: normal">
        <g fill="#171bcd">
            <path d="M62.70833,14.33333c-2.39857,0.00158 -4.50588,1.59205 -5.16504,3.89827l-21.5,75.25c-0.463,1.62119 -0.13855,3.36569 0.87635,4.71202c1.0149,1.34633 2.60268,2.1385 4.28869,2.1397h18.19661l-12.66064,50.65658c-0.58872,2.36285 0.48444,4.82633 2.61563,6.00431c2.1312,1.17798 4.78807,0.77621 6.47567,-0.97925l86,-89.58333c1.49184,-1.55397 1.91193,-3.84847 1.06741,-5.83019c-0.84452,-1.98172 -2.79052,-3.2679 -4.94469,-3.26811h-31.95606l11.97477,-35.92432c0.54665,-1.63969 0.27153,-3.44221 -0.73937,-4.84417c-1.0109,-1.40195 -2.63427,-2.23231 -4.36268,-2.23152zM66.76058,25.08333h38.65381l-11.97477,35.92432c-0.54665,1.63969 -0.27153,3.44221 0.73938,4.84416c1.0109,1.40195 2.63426,2.23231 4.36267,2.23152h26.80501l-63.27523,65.91374l9.43424,-37.73698c0.40051,-1.60536 0.03942,-3.30573 -0.97894,-4.60978c-1.01836,-1.30405 -2.58052,-2.06648 -4.23509,-2.06698h-17.95866z"></path>
        </g>
    </g>
</svg>