<svg version="1.1" xmlns="http://www.w3.org/2000/svg" xmlns:xlink="http://www.w3.org/1999/xlink" viewBox="0 0 172 172">
    <g fill="none" fill-rule="nonzero" stroke="none" stroke-width="1" stroke-linecap="butt" stroke-linejoin="miter"
       stroke-miterlimit="10" stroke-dasharray="" stroke-dashoffset="0" font-family="none" font-weight="none"
       font-size="none" text-anchor="none" style="mix-blend-mode: normal">
        <path d="M0,172v-172h172v172z" fill="none"></path>
        <g fill="#0063FF">
            <path d="M140.37708,35.89067c6.04508,0 7.63608,4.57233 5.848,15.308c-2.04608,12.2765 -7.94067,52.92225 -12.642,78.22417c-1.79883,9.68217 -5.04175,13.85675 -9.761,13.85675c-2.59433,0 -5.633,-1.26133 -9.12317,-3.56542c-4.73,-3.12467 -28.60933,-18.91642 -33.79442,-22.62517c-4.73,-3.37908 -11.25525,-7.44617 -3.07092,-15.45133c2.91325,-2.85233 22.00167,-21.08075 36.8725,-35.26717c1.58742,-1.51575 0.258,-3.827 -1.505,-3.827c-0.40133,0 -0.82775,0.12183 -1.24342,0.39775c-20.04517,13.29417 -47.84108,31.74475 -51.37783,34.14917c-3.53675,2.40083 -6.98392,3.94167 -11.57775,3.94167c-2.34708,0 -4.99517,-0.40133 -8.10908,-1.29717c-6.96242,-1.9995 -13.76,-4.38242 -16.40808,-5.29258c-10.19458,-3.49733 -7.77583,-8.03025 2.12492,-12.38758c39.69617,-17.46158 91.06325,-38.75375 98.15467,-41.69925c6.90867,-2.87025 12.04,-4.46483 15.61258,-4.46483M140.37708,25.14067v0c-4.902,0 -10.80375,1.58025 -19.72983,5.28183l-1.07142,0.44433c-38.10875,15.824 -72.66283,30.5085 -97.29467,41.3445c-3.8485,1.69492 -15.55525,6.84417 -15.10017,17.61567c0.1935,4.64758 2.752,10.98292 13.81733,14.77767l0.817,0.2795c3.08883,1.06425 9.52092,3.28233 16.11425,5.17792c4.01333,1.15383 7.63967,1.71283 11.07608,1.71283c5.96267,0 10.58158,-1.70208 14.19358,-3.68367c-0.01792,0.602 -0.00358,1.20758 0.043,1.81675c0.65217,8.28467 7.05917,12.82833 10.88617,15.5445l0.53392,0.37983c5.65092,4.042 31.22517,20.93742 34.1205,22.84733c5.45025,3.59767 10.37017,5.34275 15.04642,5.34275c7.353,0 16.85242,-3.92733 20.32825,-22.6395c3.30025,-17.74825 7.11292,-42.54133 9.89717,-60.64433c1.18608,-7.72567 2.16075,-14.061 2.78067,-17.77692c1.25058,-7.5035 1.82392,-16.00317 -3.397,-22.16292c-2.193,-2.58 -6.235,-5.65808 -13.06125,-5.65808z"></path>
        </g>
    </g>
</svg>